<svg width="91" height="23" viewBox="0 0 91 23" fill="none" xmlns="http://www.w3.org/2000/svg">
<path d="M0.71 0.999999H7.79V16.51H17.27V22H0.71V0.999999ZM29.9427 22.48C27.6827 22.48 25.6527 22.01 23.8527 21.07C22.0527 20.13 20.6427 18.83 19.6227 17.17C18.6027 15.49 18.0927 13.6 18.0927 11.5C18.0927 9.4 18.6027 7.52 19.6227 5.86C20.6427 4.18 22.0527 2.87 23.8527 1.93C25.6527 0.989999 27.6827 0.519999 29.9427 0.519999C32.2027 0.519999 34.2327 0.989999 36.0327 1.93C37.8327 2.87 39.2427 4.18 40.2627 5.86C41.2827 7.52 41.7927 9.4 41.7927 11.5C41.7927 13.6 41.2827 15.49 40.2627 17.17C39.2427 18.83 37.8327 20.13 36.0327 21.07C34.2327 22.01 32.2027 22.48 29.9427 22.48ZM29.9427 16.75C30.8227 16.75 31.6127 16.54 32.3127 16.12C33.0327 15.68 33.6027 15.07 34.0227 14.29C34.4427 13.49 34.6527 12.56 34.6527 11.5C34.6527 10.44 34.4427 9.52 34.0227 8.74C33.6027 7.94 33.0327 7.33 32.3127 6.91C31.6127 6.47 30.8227 6.25 29.9427 6.25C29.0627 6.25 28.2627 6.47 27.5427 6.91C26.8427 7.33 26.2827 7.94 25.8627 8.74C25.4427 9.52 25.2327 10.44 25.2327 11.5C25.2327 12.56 25.4427 13.49 25.8627 14.29C26.2827 15.07 26.8427 15.68 27.5427 16.12C28.2627 16.54 29.0627 16.75 29.9427 16.75ZM58.2523 10.93H64.4023V19.81C63.1623 20.67 61.7223 21.33 60.0823 21.79C58.4423 22.25 56.8323 22.48 55.2523 22.48C53.0123 22.48 51.0023 22.02 49.2223 21.1C47.4423 20.16 46.0423 18.86 45.0223 17.2C44.0223 15.52 43.5223 13.62 43.5223 11.5C43.5223 9.38 44.0223 7.49 45.0223 5.83C46.0423 4.15 47.4523 2.85 49.2523 1.93C51.0723 0.989999 53.1223 0.519999 55.4023 0.519999C57.4623 0.519999 59.3023 0.869999 60.9223 1.57C62.5623 2.25 63.9223 3.25 65.0023 4.57L60.4723 8.56C59.1523 7.02 57.5823 6.25 55.7623 6.25C54.2023 6.25 52.9623 6.72 52.0423 7.66C51.1223 8.6 50.6623 9.88 50.6623 11.5C50.6623 13.08 51.1123 14.35 52.0123 15.31C52.9323 16.27 54.1523 16.75 55.6723 16.75C56.5723 16.75 57.4323 16.58 58.2523 16.24V10.93ZM78.429 22.48C76.169 22.48 74.139 22.01 72.339 21.07C70.539 20.13 69.129 18.83 68.109 17.17C67.089 15.49 66.579 13.6 66.579 11.5C66.579 9.4 67.089 7.52 68.109 5.86C69.129 4.18 70.539 2.87 72.339 1.93C74.139 0.989999 76.169 0.519999 78.429 0.519999C80.689 0.519999 82.719 0.989999 84.519 1.93C86.319 2.87 87.729 4.18 88.749 5.86C89.769 7.52 90.279 9.4 90.279 11.5C90.279 13.6 89.769 15.49 88.749 17.17C87.729 18.83 86.319 20.13 84.519 21.07C82.719 22.01 80.689 22.48 78.429 22.48ZM78.429 16.75C79.309 16.75 80.099 16.54 80.799 16.12C81.519 15.68 82.089 15.07 82.509 14.29C82.929 13.49 83.139 12.56 83.139 11.5C83.139 10.44 82.929 9.52 82.509 8.74C82.089 7.94 81.519 7.33 80.799 6.91C80.099 6.47 79.309 6.25 78.429 6.25C77.549 6.25 76.749 6.47 76.029 6.91C75.329 7.33 74.769 7.94 74.349 8.74C73.929 9.52 73.719 10.44 73.719 11.5C73.719 12.56 73.929 13.49 74.349 14.29C74.769 15.07 75.329 15.68 76.029 16.12C76.749 16.54 77.549 16.75 78.429 16.75Z" fill="#B1B1B1"/>
</svg>
